<?xml version="1.0" encoding="UTF-8" standalone="no"?>
<!-- Created with Inkscape (http://www.inkscape.org/) -->

<svg
   xmlns:dc="http://purl.org/dc/elements/1.1/"
   xmlns:cc="http://creativecommons.org/ns#"
   xmlns:rdf="http://www.w3.org/1999/02/22-rdf-syntax-ns#"
   xmlns:svg="http://www.w3.org/2000/svg"
   xmlns="http://www.w3.org/2000/svg"
   xmlns:sodipodi="http://sodipodi.sourceforge.net/DTD/sodipodi-0.dtd"
   xmlns:inkscape="http://www.inkscape.org/namespaces/inkscape"
   width="25.156559"
   height="25.156559"
   id="svg5007"
   version="1.1"
   inkscape:version="0.48+devel r13349"
   viewBox="0 0 25.156559 25.156559"
   sodipodi:docname="aboutN.svg">
  <defs
     id="defs5009" />
  <sodipodi:namedview
     id="base"
     pagecolor="#ffffff"
     bordercolor="#666666"
     borderopacity="1.0"
     inkscape:pageopacity="0.0"
     inkscape:pageshadow="2"
     inkscape:zoom="16"
     inkscape:cx="7.2865695"
     inkscape:cy="6.689387"
     inkscape:document-units="px"
     inkscape:current-layer="layer1"
     showgrid="false"
     fit-margin-top="0"
     fit-margin-left="0"
     fit-margin-right="0"
     fit-margin-bottom="0"
     inkscape:window-width="935"
     inkscape:window-height="866"
     inkscape:window-x="147"
     inkscape:window-y="1"
     inkscape:window-maximized="0"
     showguides="false" />
  <metadata
     id="metadata5012">
    <rdf:RDF>
      <cc:Work
         rdf:about="">
        <dc:format>image/svg+xml</dc:format>
        <dc:type
           rdf:resource="http://purl.org/dc/dcmitype/StillImage" />
        <dc:title></dc:title>
      </cc:Work>
    </rdf:RDF>
  </metadata>
  <g
     inkscape:label="Layer 1"
     inkscape:groupmode="layer"
     id="layer1"
     transform="translate(-458.85029,-651.21246)">
    <g
       id="g5571"
       transform="translate(520.61607,-139.0355)">
      <path
         sodipodi:nodetypes="ssssssssss"
         inkscape:connector-curvature="0"
         id="path5732-8-5"
         d="m -49.1875,794.16603 c -5.07372,0 -9.1875,4.11378 -9.1875,9.1875 0,5.07372 4.11378,9.1875 9.1875,9.1875 5.07372,0 9.1875,-4.11378 9.1875,-9.1875 0,-5.07372 -4.11378,-9.1875 -9.1875,-9.1875 z m 0,1.88721 c 4.14189,0 7.30029,3.1584 7.30029,7.30029 0,4.14189 -3.1584,7.30029 -7.30029,7.30029 -4.14189,0 -7.30029,-3.1584 -7.30029,-7.30029 0,-4.14189 3.1584,-7.30029 7.30029,-7.30029 z"
         style="color:#000000;display:inline;overflow:visible;visibility:visible;fill:#393c3f;fill-opacity:1;fill-rule:nonzero;stroke:none;stroke-width:1.13563895;marker:none;enable-background:accumulate" />
      <path
         sodipodi:nodetypes="ssssssssss"
         inkscape:connector-curvature="0"
         id="path5732-0"
         d="m -49.1875,793.11145 c -5.07372,0 -9.1875,4.11378 -9.1875,9.1875 0,5.07372 4.11378,9.1875 9.1875,9.1875 5.07372,0 9.1875,-4.11378 9.1875,-9.1875 0,-5.07372 -4.11378,-9.1875 -9.1875,-9.1875 z m 0,1.88721 c 4.14189,0 7.30029,3.1584 7.30029,7.30029 0,4.14189 -3.1584,7.30029 -7.30029,7.30029 -4.14189,0 -7.30029,-3.1584 -7.30029,-7.30029 0,-4.14189 3.1584,-7.30029 7.30029,-7.30029 z"
         style="color:#000000;display:inline;overflow:visible;visibility:visible;fill:#cacaca;fill-opacity:1;fill-rule:nonzero;stroke:none;stroke-width:1.13563895;marker:none;enable-background:accumulate" />
      <g
         id="flowRoot5499-7"
         style="color:#000000;font-style:normal;font-weight:bold;font-size:13px;line-height:125%;font-family:Sans;-inkscape-font-specification:Droid Sans Bold;letter-spacing:0px;word-spacing:0px;display:inline;overflow:visible;visibility:visible;fill:#393c3f;fill-opacity:1;fill-rule:nonzero;stroke:none;stroke-width:1.13563895;marker:none;enable-background:accumulate"
         transform="translate(-105.61872,487.56667)">
        <path
           id="path5548-9"
           style="color:#000000;font-variant:normal;font-stretch:normal;font-family:Droid Sans;-inkscape-font-specification:Droid Sans Bold;display:inline;overflow:visible;visibility:visible;fill:#393c3f;fill-opacity:1;marker:none;enable-background:accumulate"
           d="m 55.238281,317.37913 0,-0.46973 c -10e-7,-0.21582 0.02116,-0.41048 0.06348,-0.58399 0.04655,-0.17773 0.114256,-0.34488 0.203125,-0.50146 0.0931,-0.1608 0.211586,-0.31526 0.355469,-0.46338 0.143877,-0.15234 0.31738,-0.30891 0.520507,-0.46973 0.177732,-0.13964 0.327959,-0.26448 0.450684,-0.37451 0.122718,-0.11002 0.222164,-0.21793 0.29834,-0.32373 0.07617,-0.11002 0.131181,-0.22427 0.165039,-0.34277 0.03385,-0.11848 0.05078,-0.25602 0.05078,-0.4126 -4e-6,-0.2412 -0.08252,-0.4401 -0.247558,-0.59668 -0.160811,-0.15657 -0.408369,-0.23485 -0.742676,-0.23486 -0.291995,1e-5 -0.607262,0.0614 -0.945801,0.18408 -0.334311,0.12273 -0.681316,0.27296 -1.041016,0.45068 l -0.647461,-1.40283 c 0.181966,-0.10578 0.378743,-0.20523 0.590332,-0.29834 0.21582,-0.0973 0.437988,-0.18195 0.666504,-0.2539 0.232746,-0.0762 0.467609,-0.13541 0.70459,-0.17774 0.236977,-0.0423 0.469724,-0.0635 0.698242,-0.0635 0.431638,10e-6 0.82096,0.0529 1.167969,0.1587 0.347001,0.10157 0.641109,0.2518 0.882324,0.45068 0.241206,0.1989 0.425288,0.44011 0.552246,0.72363 0.13118,0.28354 0.196772,0.60727 0.196778,0.97119 -6e-6,0.26661 -0.02963,0.50571 -0.08887,0.71729 -0.05925,0.20736 -0.148118,0.40202 -0.266602,0.58398 -0.114263,0.17774 -0.260259,0.35125 -0.437988,0.52051 -0.173508,0.16505 -0.376632,0.34066 -0.609375,0.52686 -0.177739,0.13965 -0.323735,0.26237 -0.437989,0.36816 -0.110029,0.10157 -0.19678,0.1989 -0.260253,0.29199 -0.06348,0.0931 -0.107914,0.19044 -0.133301,0.292 -0.02116,0.0973 -0.03174,0.2137 -0.03174,0.34912 l 0,0.38086 -1.675781,0 M 55.028807,319.55 c -2e-6,-0.19889 0.0275,-0.36604 0.08252,-0.50146 0.05924,-0.13965 0.139647,-0.25179 0.241211,-0.33643 0.101561,-0.0846 0.22005,-0.14599 0.355469,-0.18408 0.139646,-0.0381 0.287758,-0.0571 0.444336,-0.0571 0.148109,0 0.287757,0.0191 0.418945,0.0571 0.135414,0.0381 0.253903,0.0994 0.355469,0.18408 0.101559,0.0846 0.181962,0.19678 0.241211,0.33643 0.05924,0.13542 0.08886,0.30257 0.08887,0.50146 -4e-6,0.19043 -0.02963,0.35336 -0.08887,0.48877 -0.05925,0.13542 -0.139652,0.24756 -0.241211,0.33643 -0.101566,0.0889 -0.220055,0.15234 -0.355469,0.19043 -0.131188,0.0423 -0.270836,0.0635 -0.418945,0.0635 -0.156578,0 -0.30469,-0.0212 -0.444336,-0.0635 -0.135419,-0.0381 -0.253908,-0.10156 -0.355469,-0.19043 -0.101564,-0.0889 -0.181968,-0.20101 -0.241211,-0.33643 -0.05501,-0.13541 -0.08252,-0.29834 -0.08252,-0.48877"
           inkscape:connector-curvature="0" />
      </g>
      <g
         id="flowRoot5499"
         style="color:#000000;font-style:normal;font-weight:bold;font-size:13px;line-height:125%;font-family:Sans;-inkscape-font-specification:Droid Sans Bold;letter-spacing:0px;word-spacing:0px;display:inline;overflow:visible;visibility:visible;fill:#cacaca;fill-opacity:1;fill-rule:nonzero;stroke:none;stroke-width:1.13563895;marker:none;enable-background:accumulate"
         transform="translate(-105.53033,486.45057)">
        <path
           inkscape:connector-curvature="0"
           id="path5548"
           style="color:#000000;font-variant:normal;font-stretch:normal;font-family:Droid Sans;-inkscape-font-specification:Droid Sans Bold;display:inline;overflow:visible;visibility:visible;fill:#cacaca;marker:none;enable-background:accumulate"
           d="m 55.238281,317.37913 0,-0.46973 c -10e-7,-0.21582 0.02116,-0.41048 0.06348,-0.58399 0.04655,-0.17773 0.114256,-0.34488 0.203125,-0.50146 0.0931,-0.1608 0.211586,-0.31526 0.355469,-0.46338 0.143877,-0.15234 0.31738,-0.30891 0.520507,-0.46973 0.177732,-0.13964 0.327959,-0.26448 0.450684,-0.37451 0.122718,-0.11002 0.222164,-0.21793 0.29834,-0.32373 0.07617,-0.11002 0.131181,-0.22427 0.165039,-0.34277 0.03385,-0.11848 0.05078,-0.25602 0.05078,-0.4126 -4e-6,-0.2412 -0.08252,-0.4401 -0.247558,-0.59668 -0.160811,-0.15657 -0.408369,-0.23485 -0.742676,-0.23486 -0.291995,1e-5 -0.607262,0.0614 -0.945801,0.18408 -0.334311,0.12273 -0.681316,0.27296 -1.041016,0.45068 l -0.647461,-1.40283 c 0.181966,-0.10578 0.378743,-0.20523 0.590332,-0.29834 0.21582,-0.0973 0.437988,-0.18195 0.666504,-0.2539 0.232746,-0.0762 0.467609,-0.13541 0.70459,-0.17774 0.236977,-0.0423 0.469724,-0.0635 0.698242,-0.0635 0.431638,10e-6 0.82096,0.0529 1.167969,0.1587 0.347001,0.10157 0.641109,0.2518 0.882324,0.45068 0.241206,0.1989 0.425288,0.44011 0.552246,0.72363 0.13118,0.28354 0.196772,0.60727 0.196778,0.97119 -6e-6,0.26661 -0.02963,0.50571 -0.08887,0.71729 -0.05925,0.20736 -0.148118,0.40202 -0.266602,0.58398 -0.114263,0.17774 -0.260259,0.35125 -0.437988,0.52051 -0.173508,0.16505 -0.376632,0.34066 -0.609375,0.52686 -0.177739,0.13965 -0.323735,0.26237 -0.437989,0.36816 -0.110029,0.10157 -0.19678,0.1989 -0.260253,0.29199 -0.06348,0.0931 -0.107914,0.19044 -0.133301,0.292 -0.02116,0.0973 -0.03174,0.2137 -0.03174,0.34912 l 0,0.38086 -1.675781,0 M 55.028807,319.55 c -2e-6,-0.19889 0.0275,-0.36604 0.08252,-0.50146 0.05924,-0.13965 0.139647,-0.25179 0.241211,-0.33643 0.101561,-0.0846 0.22005,-0.14599 0.355469,-0.18408 0.139646,-0.0381 0.287758,-0.0571 0.444336,-0.0571 0.148109,0 0.287757,0.0191 0.418945,0.0571 0.135414,0.0381 0.253903,0.0994 0.355469,0.18408 0.101559,0.0846 0.181962,0.19678 0.241211,0.33643 0.05924,0.13542 0.08886,0.30257 0.08887,0.50146 -4e-6,0.19043 -0.02963,0.35336 -0.08887,0.48877 -0.05925,0.13542 -0.139652,0.24756 -0.241211,0.33643 -0.101566,0.0889 -0.220055,0.15234 -0.355469,0.19043 -0.131188,0.0423 -0.270836,0.0635 -0.418945,0.0635 -0.156578,0 -0.30469,-0.0212 -0.444336,-0.0635 -0.135419,-0.0381 -0.253908,-0.10156 -0.355469,-0.19043 -0.101564,-0.0889 -0.181968,-0.20101 -0.241211,-0.33643 -0.05501,-0.13541 -0.08252,-0.29834 -0.08252,-0.48877" />
      </g>
    </g>
  </g>
</svg>
