<?xml version="1.0" encoding="UTF-8" standalone="no"?>
<!-- Created with Inkscape (http://www.inkscape.org/) -->

<svg
   xmlns:dc="http://purl.org/dc/elements/1.1/"
   xmlns:cc="http://creativecommons.org/ns#"
   xmlns:rdf="http://www.w3.org/1999/02/22-rdf-syntax-ns#"
   xmlns:svg="http://www.w3.org/2000/svg"
   xmlns="http://www.w3.org/2000/svg"
   xmlns:sodipodi="http://sodipodi.sourceforge.net/DTD/sodipodi-0.dtd"
   xmlns:inkscape="http://www.inkscape.org/namespaces/inkscape"
   width="25.156559"
   height="25.156559"
   id="svg5007"
   version="1.1"
   inkscape:version="0.48+devel r13349"
   viewBox="0 0 25.156559 25.156559"
   sodipodi:docname="settingsA.svg">
  <defs
     id="defs5009" />
  <sodipodi:namedview
     id="base"
     pagecolor="#ffffff"
     bordercolor="#666666"
     borderopacity="1.0"
     inkscape:pageopacity="0.0"
     inkscape:pageshadow="2"
     inkscape:zoom="16"
     inkscape:cx="7.2865695"
     inkscape:cy="6.689387"
     inkscape:document-units="px"
     inkscape:current-layer="layer1"
     showgrid="false"
     fit-margin-top="0"
     fit-margin-left="0"
     fit-margin-right="0"
     fit-margin-bottom="0"
     inkscape:window-width="935"
     inkscape:window-height="866"
     inkscape:window-x="147"
     inkscape:window-y="1"
     inkscape:window-maximized="0"
     showguides="false" />
  <metadata
     id="metadata5012">
    <rdf:RDF>
      <cc:Work
         rdf:about="">
        <dc:format>image/svg+xml</dc:format>
        <dc:type
           rdf:resource="http://purl.org/dc/dcmitype/StillImage" />
        <dc:title></dc:title>
      </cc:Work>
    </rdf:RDF>
  </metadata>
  <g
     inkscape:label="Layer 1"
     inkscape:groupmode="layer"
     id="layer1"
     transform="translate(-458.85029,-651.21246)">
    <g
       id="g5196"
       transform="translate(2.4532795,2.9842195)">
      <path
         style="color:#000000;clip-rule:nonzero;display:inline;overflow:visible;visibility:visible;color-interpolation:sRGB;color-interpolation-filters:linearRGB;fill:#393c3f;fill-opacity:1;fill-rule:nonzero;stroke:none;stroke-width:3;marker:none;color-rendering:auto;image-rendering:auto;shape-rendering:auto;text-rendering:auto;enable-background:accumulate"
         d="m 467.77823,652.17019 c -0.41465,-0.004 -0.75273,0.32536 -0.75703,0.74003 l -0.0192,1.81389 a 6.940883,6.940883 0 0 0 -0.034,0.009 l 0,0.002 c -0.44696,0.13447 -0.85491,0.32716 -1.25888,0.54438 l -0.034,0 -0.007,-0.007 a 6.940883,6.940883 0 0 0 -1.40774,1.02072 l -1.57573,-0.90802 c -0.0898,-0.0518 -0.18628,-0.0836 -0.28282,-0.0957 -0.28965,-0.0362 -0.58466,0.1006 -0.74003,0.37001 l -1.29077,2.24133 c -0.20716,0.35923 -0.0849,0.81355 0.27431,1.02071 l 1.57148,0.90589 a 6.940883,6.940883 0 0 0 -0.18288,1.54171 6.940883,6.940883 0 0 0 0.168,1.49492 l -1.57362,0.89101 c -0.36075,0.20449 -0.48731,0.65783 -0.28281,1.01859 l 1.27589,2.24984 c 0.20449,0.36075 0.65783,0.48731 1.01859,0.28282 l 1.57786,-0.89525 a 6.940883,6.940883 0 0 0 1.44815,1.05686 l 0.009,-0.009 0.034,0 c 0.37204,0.20005 0.75065,0.37398 1.15681,0.5061 l -0.0192,1.82029 c -0.004,0.41466 0.32536,0.75273 0.74001,0.75703 l 2.58582,0.0255 c 0.41467,0.004 0.75274,-0.32537 0.75704,-0.74003 l 0.0191,-1.81374 a 6.940883,6.940883 0 0 0 0.034,-0.009 l 0,-0.002 c 0.44696,-0.13447 0.85491,-0.32716 1.25888,-0.54438 l 0.034,0 0.007,0.007 a 6.940883,6.940883 0 0 0 1.40986,-1.02072 l 1.57361,0.90801 c 0.35923,0.20716 0.81569,0.0849 1.02285,-0.27431 l 1.29077,-2.24133 c 0.20716,-0.35923 0.0849,-0.81356 -0.27431,-1.02072 l -1.57148,-0.90589 a 6.940883,6.940883 0 0 0 0.18288,-1.5417 6.940883,6.940883 0 0 0 -0.168,-1.49281 l 1.57362,-0.891 c 0.36075,-0.20448 0.48731,-0.65996 0.28281,-1.02072 l -1.27589,-2.24983 c -0.15336,-0.27057 -0.44649,-0.41016 -0.73576,-0.37638 -0.0965,0.0112 -0.19264,0.0425 -0.28283,0.0935 l -1.57786,0.89313 a 6.940883,6.940883 0 0 0 -1.44815,-1.05473 l -0.009,0.009 c -0.009,-0.004 -0.0253,0.004 -0.034,0 -0.37204,-0.20005 -0.75065,-0.37398 -1.15681,-0.50612 l 0.0192,-1.82027 c 0.004,-0.41467 -0.32536,-0.75061 -0.74001,-0.75491 l -2.58582,-0.0276 z m 1.19722,6.035 c 1.74946,0 3.16423,1.41476 3.16423,3.16423 0,1.74946 -1.41477,3.16422 -3.16423,3.16422 -1.74946,0 -3.16423,-1.41476 -3.16423,-3.16422 0,-1.74947 1.41477,-3.16423 3.16423,-3.16423 z"
         id="path7822"
         inkscape:connector-curvature="0" />
      <path
         inkscape:connector-curvature="0"
         id="rect7805"
         d="m 467.77823,651.04519 c -0.41465,-0.004 -0.75273,0.32536 -0.75703,0.74003 l -0.0192,1.81389 a 6.940883,6.940883 0 0 0 -0.034,0.009 l 0,0.002 c -0.44696,0.13447 -0.85491,0.32716 -1.25888,0.54438 l -0.034,0 -0.007,-0.007 a 6.940883,6.940883 0 0 0 -1.40774,1.02072 l -1.57573,-0.90802 c -0.0898,-0.0518 -0.18628,-0.0836 -0.28282,-0.0957 -0.28965,-0.0362 -0.58466,0.1006 -0.74003,0.37001 l -1.29077,2.24133 c -0.20716,0.35923 -0.0849,0.81355 0.27431,1.02071 l 1.57148,0.90589 a 6.940883,6.940883 0 0 0 -0.18288,1.54171 6.940883,6.940883 0 0 0 0.168,1.49492 l -1.57362,0.89101 c -0.36075,0.20449 -0.48731,0.65783 -0.28281,1.01859 l 1.27589,2.24984 c 0.20449,0.36075 0.65783,0.48731 1.01859,0.28282 l 1.57786,-0.89525 a 6.940883,6.940883 0 0 0 1.44815,1.05686 l 0.009,-0.009 0.034,0 c 0.37204,0.20005 0.75065,0.37398 1.15681,0.5061 l -0.0192,1.82029 c -0.004,0.41466 0.32536,0.75273 0.74001,0.75703 l 2.58582,0.0255 c 0.41467,0.004 0.75274,-0.32537 0.75704,-0.74003 l 0.0191,-1.81374 a 6.940883,6.940883 0 0 0 0.034,-0.009 l 0,-0.002 c 0.44696,-0.13447 0.85491,-0.32716 1.25888,-0.54438 l 0.034,0 0.007,0.007 a 6.940883,6.940883 0 0 0 1.40986,-1.02072 l 1.57361,0.90801 c 0.35923,0.20716 0.81569,0.0849 1.02285,-0.27431 l 1.29077,-2.24133 c 0.20716,-0.35923 0.0849,-0.81356 -0.27431,-1.02072 l -1.57148,-0.90589 a 6.940883,6.940883 0 0 0 0.18288,-1.5417 6.940883,6.940883 0 0 0 -0.168,-1.49281 l 1.57362,-0.891 c 0.36075,-0.20448 0.48731,-0.65996 0.28281,-1.02072 l -1.27589,-2.24983 c -0.15336,-0.27057 -0.44649,-0.41016 -0.73576,-0.37638 -0.0965,0.0112 -0.19264,0.0425 -0.28283,0.0935 l -1.57786,0.89313 a 6.940883,6.940883 0 0 0 -1.44815,-1.05473 l -0.009,0.009 c -0.009,-0.004 -0.0253,0.004 -0.034,0 -0.37204,-0.20005 -0.75065,-0.37398 -1.15681,-0.50612 l 0.0192,-1.82027 c 0.004,-0.41467 -0.32536,-0.75061 -0.74001,-0.75491 l -2.58582,-0.0276 z m 1.19722,6.035 c 1.74946,0 3.16423,1.41476 3.16423,3.16423 0,1.74946 -1.41477,3.16422 -3.16423,3.16422 -1.74946,0 -3.16423,-1.41476 -3.16423,-3.16422 0,-1.74947 1.41477,-3.16423 3.16423,-3.16423 z"
         style="color:#000000;clip-rule:nonzero;display:inline;overflow:visible;visibility:visible;color-interpolation:sRGB;color-interpolation-filters:linearRGB;fill:#55c1ec;fill-opacity:1;fill-rule:nonzero;stroke:none;stroke-width:3;marker:none;color-rendering:auto;image-rendering:auto;shape-rendering:auto;text-rendering:auto;enable-background:accumulate" />
    </g>
  </g>
</svg>
