<?xml version="1.0" encoding="UTF-8" standalone="no"?>
<!-- Created with Inkscape (http://www.inkscape.org/) -->

<svg
   xmlns:dc="http://purl.org/dc/elements/1.1/"
   xmlns:cc="http://creativecommons.org/ns#"
   xmlns:rdf="http://www.w3.org/1999/02/22-rdf-syntax-ns#"
   xmlns:svg="http://www.w3.org/2000/svg"
   xmlns="http://www.w3.org/2000/svg"
   xmlns:sodipodi="http://sodipodi.sourceforge.net/DTD/sodipodi-0.dtd"
   xmlns:inkscape="http://www.inkscape.org/namespaces/inkscape"
   width="24.553572"
   height="24.553572"
   id="svg3684"
   version="1.1"
   inkscape:version="0.48.5 r"
   sodipodi:docname="New document 4">
  <defs
     id="defs3686" />
  <sodipodi:namedview
     id="base"
     pagecolor="#ffffff"
     bordercolor="#666666"
     borderopacity="1.0"
     inkscape:pageopacity="0.0"
     inkscape:pageshadow="2"
     inkscape:zoom="11.2"
     inkscape:cx="12.307551"
     inkscape:cy="9.1478214"
     inkscape:document-units="px"
     inkscape:current-layer="layer1"
     showgrid="false"
     fit-margin-top="0"
     fit-margin-left="0"
     fit-margin-right="0"
     fit-margin-bottom="0"
     inkscape:window-width="985"
     inkscape:window-height="577"
     inkscape:window-x="0"
     inkscape:window-y="35"
     inkscape:window-maximized="0" />
  <metadata
     id="metadata3689">
    <rdf:RDF>
      <cc:Work
         rdf:about="">
        <dc:format>image/svg+xml</dc:format>
        <dc:type
           rdf:resource="http://purl.org/dc/dcmitype/StillImage" />
        <dc:title></dc:title>
      </cc:Work>
    </rdf:RDF>
  </metadata>
  <g
     inkscape:label="Layer 1"
     inkscape:groupmode="layer"
     id="layer1"
     transform="translate(-453.125,-734.41577)">
    <g
       id="g16398"
       transform="translate(318.75552,732.13161)">
      <path
         sodipodi:nodetypes="ssssssssssscsssssssscs"
         style="color:#000000;fill:#000000;fill-opacity:1;fill-rule:nonzero;stroke:none;stroke-width:0.62666047;marker:none;visibility:visible;display:inline;overflow:visible;enable-background:accumulate"
         d="m 142.15398,9.0753665 c -0.4364,0 -0.7949,0.35852 -0.7949,0.79491 0,0.4364005 0.3585,0.7949105 0.7949,0.7949105 0.4364,0 0.7949,-0.35851 0.7949,-0.7949105 0,-0.43639 -0.3585,-0.79491 -0.7949,-0.79491 z m 0,2.1462595 c -0.6546,0 -1.1924,0.537761 -1.1924,1.192361 0,0.65461 0.5378,1.19237 1.1924,1.19237 0.6546,0 1.1924,-0.53776 1.1924,-1.19237 0,-0.654601 -0.5378,-1.192361 -1.1924,-1.192361 z m 0,2.921291 c -1.2477,0 -2.2788,0.83218 -2.6232,1.967399 l -0.4571,0 c -0.3695,0 -0.6756,0.30611 -0.6756,0.67568 l 0,6.9952 c 0,0.36956 0.3061,0.67567 0.6756,0.67567 l 6.1606,0 c 0.3695,0 0.6756,-0.30611 0.6756,-0.67567 l 0,-6.9952 c 0,-0.36957 -0.3061,-0.67568 -0.6756,-0.67568 l -0.4571,0 c -0.3444,-1.135219 -1.3754,-1.967399 -2.6232,-1.967399 z"
         id="path3047-26-2"
         inkscape:connector-curvature="0" />
      <path
         sodipodi:nodetypes="csc"
         inkscape:connector-curvature="0"
         id="path3047-2-1-9"
         d="m 145.96893,11.734531 c 0.98022,0.730666 1.76503,1.746579 2.2133,2.981804 0.45098,1.242699 0.49825,2.533544 0.20894,3.728887"
         style="color:#000000;fill:none;stroke:#000000;stroke-width:1.31232345;stroke-linecap:round;stroke-linejoin:round;stroke-miterlimit:4;stroke-opacity:1;marker:none;visibility:visible;display:inline;overflow:visible;enable-background:accumulate" />
      <path
         sodipodi:nodetypes="csc"
         inkscape:connector-curvature="0"
         id="path3047-2-0-4-1"
         d="m 147.39912,9.0553295 c 1.60988,1.0836335 2.90321,2.6691085 3.6159,4.6329785 0.7242,1.995572 0.73783,4.075897 0.17039,5.963856"
         style="color:#000000;fill:none;stroke:#000000;stroke-width:1.3097949;stroke-linecap:round;stroke-linejoin:round;stroke-miterlimit:4;stroke-opacity:1;marker:none;visibility:visible;display:inline;overflow:visible;enable-background:accumulate" />
      <path
         sodipodi:nodetypes="csc"
         inkscape:connector-curvature="0"
         id="path3047-2-0-9-6-4"
         d="m 148.92912,6.1699475 c 2.2952,1.456659 4.14412,3.655822 5.1432,6.4088425 0.99732,2.748171 0.99093,5.616027 0.16847,8.202127"
         style="color:#000000;fill:none;stroke:#000000;stroke-width:1.3097949;stroke-linecap:round;stroke-linejoin:round;stroke-miterlimit:4;stroke-opacity:1;marker:none;visibility:visible;display:inline;overflow:visible;enable-background:accumulate" />
    </g>
    <path
       inkscape:connector-curvature="0"
       id="path3047-26"
       d="m 460.93373,740.26763 c -0.4364,0 -0.7949,0.35852 -0.7949,0.79491 0,0.4364 0.3585,0.79491 0.7949,0.79491 0.4364,0 0.7949,-0.35851 0.7949,-0.79491 0,-0.43639 -0.3585,-0.79491 -0.7949,-0.79491 z m 0,2.14626 c -0.6546,0 -1.1924,0.53776 -1.1924,1.19236 0,0.65461 0.5378,1.19237 1.1924,1.19237 0.6546,0 1.1924,-0.53776 1.1924,-1.19237 0,-0.6546 -0.5378,-1.19236 -1.1924,-1.19236 z m 0,2.92129 c -1.2477,0 -2.2788,0.83218 -2.6232,1.9674 l -0.4571,0 c -0.3695,0 -0.6756,0.30611 -0.6756,0.67568 l 0,6.9952 c 0,0.36956 0.3061,0.67567 0.6756,0.67567 l 6.1606,0 c 0.3695,0 0.6756,-0.30611 0.6756,-0.67567 l 0,-6.9952 c 0,-0.36957 -0.3061,-0.67568 -0.6756,-0.67568 l -0.4571,0 c -0.3444,-1.13522 -1.3754,-1.9674 -2.6232,-1.9674 z"
       style="color:#000000;fill:#f7f7f7;fill-opacity:1;fill-rule:nonzero;stroke:none;stroke-width:0.62666047;marker:none;visibility:visible;display:inline;overflow:visible;enable-background:accumulate"
       sodipodi:nodetypes="ssssssssssscsssssssscs" />
    <path
       style="color:#000000;fill:none;stroke:#ffffff;stroke-width:1.31232345;stroke-linecap:round;stroke-linejoin:round;stroke-miterlimit:4;stroke-opacity:1;marker:none;visibility:visible;display:inline;overflow:visible;enable-background:accumulate"
       d="m 464.74868,742.9268 c 0.98022,0.73066 1.76503,1.74658 2.2133,2.9818 0.45098,1.2427 0.49825,2.53355 0.20894,3.72889"
       id="path3047-2-1"
       inkscape:connector-curvature="0"
       sodipodi:nodetypes="csc" />
    <path
       style="color:#000000;fill:none;stroke:#ffffff;stroke-width:1.3097949;stroke-linecap:round;stroke-linejoin:round;stroke-miterlimit:4;stroke-opacity:1;marker:none;visibility:visible;display:inline;overflow:visible;enable-background:accumulate"
       d="m 466.17887,740.2476 c 1.60988,1.08363 2.90321,2.66911 3.6159,4.63298 0.7242,1.99557 0.73783,4.07589 0.17039,5.96385"
       id="path3047-2-0-4"
       inkscape:connector-curvature="0"
       sodipodi:nodetypes="csc" />
    <path
       style="color:#000000;fill:none;stroke:#ffffff;stroke-width:1.3097949;stroke-linecap:round;stroke-linejoin:round;stroke-miterlimit:4;stroke-opacity:1;marker:none;visibility:visible;display:inline;overflow:visible;enable-background:accumulate"
       d="m 467.70887,737.36222 c 2.2952,1.45665 4.14412,3.65582 5.1432,6.40884 0.99732,2.74817 0.99093,5.61602 0.16847,8.20212"
       id="path3047-2-0-9-6"
       inkscape:connector-curvature="0"
       sodipodi:nodetypes="csc" />
  </g>
</svg>
